<svg xmlns="http://www.w3.org/2000/svg" xmlns:xlink="http://www.w3.org/1999/xlink" width="500" zoomAndPan="magnify" viewBox="0 0 375 374.999991" height="500" preserveAspectRatio="xMidYMid meet" version="1.2"><defs><clipPath id="17a24b7f9f"><path d="M 156 89.667969 L 237 89.667969 L 237 199.917969 L 156 199.917969 Z M 156 89.667969 "/></clipPath><clipPath id="432bf3529e"><path d="M 122.359375 89.667969 L 175 89.667969 L 175 118 L 122.359375 118 Z M 122.359375 89.667969 "/></clipPath><clipPath id="682e42266a"><path d="M 156 103 L 224 103 L 224 199.917969 L 156 199.917969 Z M 156 103 "/></clipPath><clipPath id="154cee4f1e"><path d="M 122.359375 89.667969 L 175 89.667969 L 175 118 L 122.359375 118 Z M 122.359375 89.667969 "/></clipPath></defs><g id="a300bda869"><rect x="0" width="375" y="0" height="374.999991" style="fill:#ffffff;fill-opacity:1;stroke:none;"/><rect x="0" width="375" y="0" height="374.999991" style="fill:#ffffff;fill-opacity:1;stroke:none;"/><g clip-rule="nonzero" clip-path="url(#17a24b7f9f)"><path style=" stroke:none;fill-rule:evenodd;fill:#0a0c06;fill-opacity:1;" d="M 207.285156 166.984375 L 229.03125 199.589844 L 195.664062 199.589844 L 174.71875 168.183594 L 156.40625 140.703125 C 156.40625 140.703125 197.609375 140.703125 197.625 140.703125 C 204.035156 140.703125 209.40625 135.324219 209.40625 128.925781 C 209.40625 122.429688 204.125 117.148438 197.625 117.148438 L 187.714844 117.148438 L 169.402344 89.667969 L 197.625 89.667969 C 219.316406 89.667969 236.882812 107.234375 236.882812 128.925781 C 236.882812 139.761719 232.488281 149.574219 225.382812 156.679688 C 220.5 161.5625 213.972656 165.28125 207.285156 166.984375 "/></g><g clip-rule="nonzero" clip-path="url(#432bf3529e)"><path style=" stroke:none;fill-rule:evenodd;fill:#fbb02e;fill-opacity:1;" d="M 174.066406 117.148438 L 140.695312 117.148438 L 122.375 89.667969 L 155.746094 89.667969 Z M 174.066406 117.148438 "/></g><g clip-rule="nonzero" clip-path="url(#682e42266a)"><path style=" stroke:none;fill-rule:evenodd;fill:#0a0c06;fill-opacity:1;" d="M 197.179688 155.316406 L 184.480469 155.316406 L 193.03125 168.167969 L 213.976562 199.589844 L 195.65625 199.589844 L 182.464844 179.773438 L 156.417969 140.6875 C 156.417969 140.6875 197.609375 140.6875 197.640625 140.6875 C 204.019531 140.6875 209.394531 135.316406 209.394531 128.933594 C 209.394531 122.429688 204.113281 117.148438 197.640625 117.148438 L 187.722656 117.148438 L 178.5625 103.40625 L 197.179688 103.40625 C 211.53125 103.40625 223.136719 115.039062 223.136719 129.363281 C 223.136719 143.679688 211.53125 155.316406 197.179688 155.316406 "/></g><g clip-rule="nonzero" clip-path="url(#154cee4f1e)"><path style=" stroke:none;fill-rule:evenodd;fill:#fbb02e;fill-opacity:1;" d="M 122.375 89.667969 L 140.695312 117.148438 L 174.066406 117.148438 L 164.90625 103.40625 L 151.003906 103.40625 C 140.3125 103.40625 130.152344 98.738281 123.195312 90.621094 Z M 122.375 89.667969 "/></g><g style="fill:#0a0c06;fill-opacity:1;"><g transform="translate(112.74383, 228.477372)"><path style="stroke:none" d="M 1.21875 0 L 1.21875 -15.28125 L 8.15625 -15.28125 C 9.507812 -15.28125 10.664062 -15.054688 11.625 -14.609375 C 12.582031 -14.160156 13.3125 -13.53125 13.8125 -12.71875 C 14.320312 -11.914062 14.578125 -10.972656 14.578125 -9.890625 C 14.578125 -8.816406 14.316406 -7.875 13.796875 -7.0625 C 13.285156 -6.257812 12.546875 -5.628906 11.578125 -5.171875 C 10.617188 -4.722656 9.457031 -4.5 8.09375 -4.5 L 5.328125 -4.5 L 5.328125 0 Z M 5.328125 -7.421875 L 7.625 -7.421875 C 8.507812 -7.421875 9.195312 -7.648438 9.6875 -8.109375 C 10.175781 -8.566406 10.421875 -9.160156 10.421875 -9.890625 C 10.421875 -10.617188 10.175781 -11.207031 9.6875 -11.65625 C 9.195312 -12.113281 8.507812 -12.34375 7.625 -12.34375 L 5.328125 -12.34375 Z M 5.328125 -7.421875 "/></g></g><g style="fill:#0a0c06;fill-opacity:1;"><g transform="translate(129.85003, 228.477372)"><path style="stroke:none" d="M 9.203125 0.328125 C 7.515625 0.328125 6.03125 0.00390625 4.75 -0.640625 C 3.46875 -1.296875 2.46875 -2.21875 1.75 -3.40625 C 1.039062 -4.601562 0.6875 -6.015625 0.6875 -7.640625 C 0.6875 -9.265625 1.039062 -10.671875 1.75 -11.859375 C 2.46875 -13.054688 3.46875 -13.976562 4.75 -14.625 C 6.03125 -15.28125 7.515625 -15.609375 9.203125 -15.609375 C 10.898438 -15.609375 12.382812 -15.28125 13.65625 -14.625 C 14.9375 -13.976562 15.9375 -13.054688 16.65625 -11.859375 C 17.382812 -10.671875 17.75 -9.265625 17.75 -7.640625 C 17.75 -6.015625 17.382812 -4.601562 16.65625 -3.40625 C 15.9375 -2.21875 14.9375 -1.296875 13.65625 -0.640625 C 12.382812 0.00390625 10.898438 0.328125 9.203125 0.328125 Z M 9.203125 -3.0625 C 10.078125 -3.0625 10.84375 -3.253906 11.5 -3.640625 C 12.15625 -4.023438 12.664062 -4.554688 13.03125 -5.234375 C 13.40625 -5.921875 13.59375 -6.722656 13.59375 -7.640625 C 13.59375 -8.554688 13.40625 -9.351562 13.03125 -10.03125 C 12.664062 -10.71875 12.15625 -11.253906 11.5 -11.640625 C 10.84375 -12.023438 10.078125 -12.21875 9.203125 -12.21875 C 8.347656 -12.21875 7.585938 -12.023438 6.921875 -11.640625 C 6.253906 -11.253906 5.734375 -10.71875 5.359375 -10.03125 C 4.992188 -9.351562 4.8125 -8.554688 4.8125 -7.640625 C 4.8125 -6.722656 4.992188 -5.921875 5.359375 -5.234375 C 5.734375 -4.554688 6.253906 -4.023438 6.921875 -3.640625 C 7.585938 -3.253906 8.347656 -3.0625 9.203125 -3.0625 Z M 9.203125 -3.0625 "/></g></g><g style="fill:#0a0c06;fill-opacity:1;"><g transform="translate(150.338933, 228.477372)"><path style="stroke:none" d="M 1.203125 0 L 1.203125 -15.28125 L 8.8125 -15.28125 C 10.0625 -15.28125 11.144531 -15.066406 12.0625 -14.640625 C 12.976562 -14.222656 13.691406 -13.632812 14.203125 -12.875 C 14.710938 -12.113281 14.96875 -11.21875 14.96875 -10.1875 C 14.96875 -8.945312 14.597656 -7.921875 13.859375 -7.109375 C 13.128906 -6.296875 12.1875 -5.796875 11.03125 -5.609375 L 10.703125 -5.5625 L 15.3125 0 L 10.75 0 L 6.78125 -5.265625 L 5.34375 -5.265625 L 5.34375 0 Z M 5.34375 -7.90625 L 8.03125 -7.90625 C 8.84375 -7.90625 9.507812 -8.097656 10.03125 -8.484375 C 10.5625 -8.878906 10.828125 -9.425781 10.828125 -10.125 C 10.828125 -10.84375 10.5625 -11.390625 10.03125 -11.765625 C 9.507812 -12.148438 8.84375 -12.34375 8.03125 -12.34375 L 5.34375 -12.34375 Z M 5.34375 -7.90625 "/></g></g><g style="fill:#0a0c06;fill-opacity:1;"><g transform="translate(168.108826, 228.477372)"><path style="stroke:none" d="M 5.15625 0 L 5.15625 -11.90625 L 0.28125 -11.90625 L 0.28125 -15.28125 L 14.171875 -15.28125 L 14.171875 -11.90625 L 9.296875 -11.90625 L 9.296875 0 Z M 5.15625 0 "/></g></g><g style="fill:#0a0c06;fill-opacity:1;"><g transform="translate(184.615557, 228.477372)"><path style="stroke:none" d="M 1.203125 0 L 1.203125 -15.28125 L 12.765625 -15.28125 L 12.765625 -11.765625 L 5.328125 -11.765625 L 5.328125 -8.75 L 11.6875 -8.75 L 11.6875 -5.671875 L 5.328125 -5.671875 L 5.328125 0 Z M 1.203125 0 "/></g></g><g style="fill:#0a0c06;fill-opacity:1;"><g transform="translate(199.966174, 228.477372)"><path style="stroke:none" d="M 9.203125 0.328125 C 7.515625 0.328125 6.03125 0.00390625 4.75 -0.640625 C 3.46875 -1.296875 2.46875 -2.21875 1.75 -3.40625 C 1.039062 -4.601562 0.6875 -6.015625 0.6875 -7.640625 C 0.6875 -9.265625 1.039062 -10.671875 1.75 -11.859375 C 2.46875 -13.054688 3.46875 -13.976562 4.75 -14.625 C 6.03125 -15.28125 7.515625 -15.609375 9.203125 -15.609375 C 10.898438 -15.609375 12.382812 -15.28125 13.65625 -14.625 C 14.9375 -13.976562 15.9375 -13.054688 16.65625 -11.859375 C 17.382812 -10.671875 17.75 -9.265625 17.75 -7.640625 C 17.75 -6.015625 17.382812 -4.601562 16.65625 -3.40625 C 15.9375 -2.21875 14.9375 -1.296875 13.65625 -0.640625 C 12.382812 0.00390625 10.898438 0.328125 9.203125 0.328125 Z M 9.203125 -3.0625 C 10.078125 -3.0625 10.84375 -3.253906 11.5 -3.640625 C 12.15625 -4.023438 12.664062 -4.554688 13.03125 -5.234375 C 13.40625 -5.921875 13.59375 -6.722656 13.59375 -7.640625 C 13.59375 -8.554688 13.40625 -9.351562 13.03125 -10.03125 C 12.664062 -10.71875 12.15625 -11.253906 11.5 -11.640625 C 10.84375 -12.023438 10.078125 -12.21875 9.203125 -12.21875 C 8.347656 -12.21875 7.585938 -12.023438 6.921875 -11.640625 C 6.253906 -11.253906 5.734375 -10.71875 5.359375 -10.03125 C 4.992188 -9.351562 4.8125 -8.554688 4.8125 -7.640625 C 4.8125 -6.722656 4.992188 -5.921875 5.359375 -5.234375 C 5.734375 -4.554688 6.253906 -4.023438 6.921875 -3.640625 C 7.585938 -3.253906 8.347656 -3.0625 9.203125 -3.0625 Z M 9.203125 -3.0625 "/></g></g><g style="fill:#0a0c06;fill-opacity:1;"><g transform="translate(220.455081, 228.477372)"><path style="stroke:none" d="M 1.203125 0 L 1.203125 -15.28125 L 5.34375 -15.28125 L 5.34375 -3.53125 L 12.21875 -3.53125 L 12.21875 0 Z M 1.203125 0 "/></g></g><g style="fill:#0a0c06;fill-opacity:1;"><g transform="translate(235.227637, 228.477372)"><path style="stroke:none" d="M 1.203125 0 L 1.203125 -15.28125 L 5.34375 -15.28125 L 5.34375 0 Z M 1.203125 0 "/></g></g><g style="fill:#0a0c06;fill-opacity:1;"><g transform="translate(243.812854, 228.477372)"><path style="stroke:none" d="M 9.203125 0.328125 C 7.515625 0.328125 6.03125 0.00390625 4.75 -0.640625 C 3.46875 -1.296875 2.46875 -2.21875 1.75 -3.40625 C 1.039062 -4.601562 0.6875 -6.015625 0.6875 -7.640625 C 0.6875 -9.265625 1.039062 -10.671875 1.75 -11.859375 C 2.46875 -13.054688 3.46875 -13.976562 4.75 -14.625 C 6.03125 -15.28125 7.515625 -15.609375 9.203125 -15.609375 C 10.898438 -15.609375 12.382812 -15.28125 13.65625 -14.625 C 14.9375 -13.976562 15.9375 -13.054688 16.65625 -11.859375 C 17.382812 -10.671875 17.75 -9.265625 17.75 -7.640625 C 17.75 -6.015625 17.382812 -4.601562 16.65625 -3.40625 C 15.9375 -2.21875 14.9375 -1.296875 13.65625 -0.640625 C 12.382812 0.00390625 10.898438 0.328125 9.203125 0.328125 Z M 9.203125 -3.0625 C 10.078125 -3.0625 10.84375 -3.253906 11.5 -3.640625 C 12.15625 -4.023438 12.664062 -4.554688 13.03125 -5.234375 C 13.40625 -5.921875 13.59375 -6.722656 13.59375 -7.640625 C 13.59375 -8.554688 13.40625 -9.351562 13.03125 -10.03125 C 12.664062 -10.71875 12.15625 -11.253906 11.5 -11.640625 C 10.84375 -12.023438 10.078125 -12.21875 9.203125 -12.21875 C 8.347656 -12.21875 7.585938 -12.023438 6.921875 -11.640625 C 6.253906 -11.253906 5.734375 -10.71875 5.359375 -10.03125 C 4.992188 -9.351562 4.8125 -8.554688 4.8125 -7.640625 C 4.8125 -6.722656 4.992188 -5.921875 5.359375 -5.234375 C 5.734375 -4.554688 6.253906 -4.023438 6.921875 -3.640625 C 7.585938 -3.253906 8.347656 -3.0625 9.203125 -3.0625 Z M 9.203125 -3.0625 "/></g></g></g></svg>